<svg t="1587995406042" class="icon" viewBox="0 0 1024 1024" version="1.1" xmlns="http://www.w3.org/2000/svg" p-id="856" width="200" height="200"><path d="M270.661014 791.939463a36.678644 36.678644 0 0 1-25.982114-10.804038c-10.447726-10.434415-13.614603-26.050714-8.048763-39.761563l3.016367-7.527605c76.137137-190.828675 79.743261-194.434799 82.923448-197.616011L751.257427 107.57144c13.628938-13.792759 38.047579-13.944294 51.978563-0.013311L918.324796 222.60598c6.978802 7.102692 10.763083 16.302302 10.763082 25.982114 0 9.776057-3.811925 18.990001-10.735437 25.954469-0.013311 0.027645-0.040955 0.040955-0.068601 0.068601-1.988385 1.974051-147.913546 147.900235-268.954197 268.926552-85.432992 85.432992-158.457517 158.457517-159.759899 159.746588-2.947766 3.044011-6.4986 6.691091-200.029309 83.938119l-5.086662 2.029341a37.048267 37.048267 0 0 1-13.792759 2.687699z m506.565217-667.078695c-1.316717 0-3.907146 0.328667-6.046043 2.509543L342.424112 556.083383c-0.630713 1.741629-12.599933 27.517942-76.699249 188.168621l-3.071656 7.691426a8.582207 8.582207 0 0 0 1.89214 9.336811c2.495209 2.481898 6.210888 3.290767 9.405411 1.919785l5.168573-2.056986c167.177948-66.717392 189.622538-77.549075 192.515014-79.276369-0.356312 0 72.558657-72.91497 157.840114-158.183116 120.217448-120.204137 264.977427-264.964116 268.967507-268.939862 1.632073-1.645384 2.563809-3.893836 2.563809-6.156623 0-2.248452-0.959381-4.524549-2.632409-6.225223L783.381829 127.411266a8.637497 8.637497 0 0 0-6.155598-2.550498z" p-id="857" fill="#ffffff"></path><path d="M426.430832 654.226887c-3.59179 0-7.197914-1.370982-9.940903-4.112948-5.470619-5.48393-5.470619-14.382517 0.013311-19.867471l383.550514-383.083622c5.48393-5.457309 14.382517-5.470619 19.867471 0.01331 5.470619 5.48393 5.470619 14.382517-0.013311 19.867471L436.358424 650.12725a14.039516 14.039516 0 0 1-9.927592 4.099637z" p-id="858" fill="#ffffff"></path><path d="M479.670821 707.37063a13.995489 13.995489 0 0 1-9.926568-4.112947l-147.173277-147.173276c-5.48393-5.48393-5.48393-14.369207 0-19.853137s14.369207-5.48393 19.853136 0l147.173277 147.173277c5.48393 5.48393 5.48393 14.369207 0 19.853136a13.993441 13.993441 0 0 1-9.926568 4.112947zM313.054986 776.802342a13.995489 13.995489 0 0 1-9.926568-4.112947l-49.797687-49.812021c-5.48393-5.48393-5.48393-14.369207 0-19.853137s14.369207-5.48393 19.853136 0l49.797687 49.812021c5.48393 5.48393 5.48393 14.369207 0 19.853137a13.993441 13.993441 0 0 1-9.926568 4.112947z" p-id="859" fill="#ffffff"></path><path d="M686.637977 926.388916H161.275249c-37.883757 0-65.387365-27.504631-65.387364-65.387364V339.190683c0-21.320364 8.952853-57.078535 68.952533-57.078536h304.534212c7.760027 0 14.039516 6.279489 14.039516 14.039516s-6.279489 14.039516-14.039516 14.039516h-304.534212c-35.923017 0-40.872478 13.944294-40.872478 28.99848v521.810869c0 22.663702 14.643608 37.30731 37.307309 37.30731h525.362728c12.874334 0 25.433311-2.879166 25.433311-37.30731v-308.097333c0-7.760027 6.279489-14.039516 14.040539-14.039516 7.760027 0 14.039516 6.279489 14.039516 14.039516v308.098357c0 54.048859-29.094725 65.387365-53.513366 65.387364z" p-id="860" fill="#ffffff"></path></svg>