<svg t="1587786330113" class="icon" viewBox="0 0 1024 1024" version="1.1" xmlns="http://www.w3.org/2000/svg" p-id="5477" width="200" height="200"><path d="M864.1 411.8L595 137.6c-77.9-83-150.9 0-150.9 0L225.3 353.9C60.7 512.1 143.8 546.4 175 553.4v301.9c0 57.9 46.9 104.7 104.7 104.7h139.2V718.6s-10.1-27.7 47.8-27.7h118.2s27.6-2.5 27.6 32.7S615 960 615 960h134.2c57.9 0 104.7-46.9 104.7-104.7V536.1c92.2-13.4 10.2-124.3 10.2-124.3zM811.3 97.3V291L652.8 142.6V92.3c0-35.2 32.7-27.6 32.7-27.6H776c40.3 0 35.3 32.6 35.3 32.6z" p-id="5478" fill="#0384fd"></path></svg>