<?xml version="1.0" standalone="no"?><!DOCTYPE svg PUBLIC "-//W3C//DTD SVG 1.1//EN" "http://www.w3.org/Graphics/SVG/1.1/DTD/svg11.dtd"><svg class="icon" width="200px" height="168.01px" viewBox="0 0 1219 1024" version="1.1" xmlns="http://www.w3.org/2000/svg"><path fill="#fff" d="M663.6679 770.67904h-107.517368a7.384004 7.384004 0 0 0-7.400268 7.402301c0 31.691041 27.439953 57.467967 61.153869 57.467967 33.730181 0 61.168101-25.776925 61.168101-57.467967a7.386038 7.386038 0 0 0-7.404334-7.402301zM789.523296 604.55317c6.206874-17.756579 9.343856-36.021418 9.343855-54.455v-149.414274c0-76.198372-51.120813-142.695074-127.792883-167.126126v-15.08313c0-31.717471-27.43792-57.522859-61.168102-57.522859-33.713917 0-61.15387 25.805388-61.153869 57.522859v15.054667c-76.674104 24.46968-127.768487 90.982646-127.768488 167.152556v149.414274c0 18.516936 3.124784 36.781776 9.31336 54.455-50.58409 2.758836-88.984167 28.537795-88.984166 60.930235v53.780031a7.400269 7.400269 0 0 0 7.400269 7.400268h522.37969a7.412467 7.412467 0 0 0 7.418566-7.400268v-53.780031c0-32.390407-38.416341-58.169366-88.988232-60.928202z"  /></svg>