<svg t="1587732484208" class="icon" viewBox="0 0 1024 1024" version="1.1" xmlns="http://www.w3.org/2000/svg" p-id="599" width="200" height="200"><path d="M928 960l-832 0C78.336 960 64 945.664 64 928l0-64C64 846.336 78.336 832 96 832l832 0c17.664 0 32 14.336 32 32l0 64C960 945.664 945.664 960 928 960zM928 576l-832 0C78.336 576 64 561.664 64 544l0-64C64 462.336 78.336 448 96 448l832 0C945.664 448 960 462.336 960 480l0 64C960 561.664 945.664 576 928 576zM928 192l-832 0C78.336 192 64 177.664 64 160l0-64C64 78.336 78.336 64 96 64l832 0C945.664 64 960 78.336 960 96l0 64C960 177.664 945.664 192 928 192z" p-id="600"></path></svg>